<?xml version="1.0" encoding="UTF-8"?>
<svg id="Layer_2" data-name="Layer 2" xmlns="http://www.w3.org/2000/svg" viewBox="0 0 309.82 71.32">
  <defs>
    <style>
      .cls-1, .cls-2 {
        stroke-width: 0px;
      }

      .cls-2 {
        fill: #06a3c7;
      }
    </style>
  </defs>
  <g id="Layer_1-2" data-name="Layer 1">
    <g>
      <path class="cls-2" d="M58.54,35.66c0-.56.02-1.12.05-1.69.5-12.46,4.36-21.96,6.97-27.22l-6.75-6.75c-5.57,2.02-14.61,4.53-25.92,4.39h-.21c-11.31.14-20.35-2.37-25.92-4.39C4.5,2.25,2.25,4.5,0,6.75c2.61,5.26,6.47,14.76,6.97,27.22.02.57.04,1.13.05,1.69,0,.56-.02,1.12-.05,1.69-.5,12.46-4.36,21.96-6.97,27.22,2.25,2.25,4.5,4.5,6.75,6.75,5.57-2.02,14.61-4.53,25.92-4.39h.21c11.31-.14,20.35,2.37,25.92,4.39l6.75-6.75c-2.61-5.26-6.47-14.76-6.97-27.22-.02-.57-.04-1.13-.05-1.69ZM49.01,41.45h-7.26c-.66,0-1.24-.35-1.47-1.01l-1.16-3.24-3.79,12.79c-.19.66-.81,1.12-1.47,1.12h-.04c-.69-.04-1.31-.5-1.47-1.2l-4.98-21.6-3.01,12.02c-.15.69-.77,1.12-1.51,1.12h-6.3c-.85,0-1.54-.7-1.54-1.55s.69-1.55,1.54-1.55h5.1l4.29-17.04c.15-.69.81-1.12,1.51-1.12s1.31.5,1.51,1.2l5.1,22.1,3.48-11.75c.19-.66.77-1.12,1.43-1.12.66-.04,1.27.39,1.51,1l2.36,6.72h6.18c.85,0,1.55.69,1.55,1.55s-.69,1.55-1.55,1.55Z"/>
      <g>
        <path class="cls-1" d="M85.17,53.72V17.06h14.54c2.69,0,4.93.41,6.73,1.22,1.8.81,3.14,1.92,4.04,3.33.89,1.41,1.34,3.03,1.34,4.87,0,1.44-.29,2.7-.86,3.78-.57,1.07-1.36,1.95-2.35,2.63-.99.68-2.12,1.17-3.38,1.46v.37c1.38.05,2.68.44,3.9,1.17,1.22.73,2.21,1.75,2.98,3.05.76,1.3,1.14,2.86,1.14,4.66,0,1.94-.48,3.67-1.43,5.19-.95,1.53-2.36,2.73-4.22,3.6-1.86.88-4.18,1.32-6.95,1.32h-15.48ZM92.68,32.46h5.93c1.07,0,2.03-.19,2.88-.58.85-.39,1.52-.93,2-1.65.48-.71.73-1.56.73-2.55,0-1.33-.47-2.41-1.41-3.25-.94-.84-2.29-1.25-4.05-1.25h-6.08v9.28ZM92.68,47.54h6.5c2.2,0,3.81-.43,4.82-1.28,1.02-.85,1.53-1.98,1.53-3.37,0-1.03-.25-1.95-.75-2.74-.5-.8-1.21-1.42-2.13-1.87-.92-.45-2.01-.68-3.27-.68h-6.69v9.94Z"/>
        <path class="cls-1" d="M127.81,54.06c-1.9,0-3.57-.41-4.99-1.24-1.43-.83-2.53-2.02-3.31-3.57-.78-1.55-1.17-3.4-1.17-5.55v-17.49h7.38v16.21c0,1.71.44,3.04,1.33,4.01.89.97,2.1,1.45,3.64,1.45,1.05,0,1.98-.23,2.78-.68s1.43-1.11,1.88-1.97.68-1.9.68-3.11v-15.92h7.41v27.51h-6.99l-.1-6.86h.42c-.72,2.31-1.82,4.09-3.31,5.34-1.49,1.25-3.37,1.87-5.65,1.87Z"/>
        <path class="cls-1" d="M149.71,53.72V17.06h7.38v36.66h-7.38ZM156.4,45.67v-8.88h1.11l9.01-10.58h8.54l-11.88,13.8h-1.75l-5.02,5.66ZM166.89,53.72l-8.27-12.06,4.95-5.24,12.01,17.3h-8.69Z"/>
        <path class="cls-1" d="M179.11,53.72V17.06h14.3c2.79,0,5.16.53,7.11,1.59,1.95,1.06,3.44,2.52,4.47,4.38,1.02,1.86,1.54,4,1.54,6.41s-.52,4.56-1.56,6.41c-1.04,1.85-2.55,3.29-4.53,4.33-1.98,1.04-4.38,1.56-7.2,1.56h-9.2v-6.05h8c1.54,0,2.81-.27,3.8-.8.99-.53,1.73-1.27,2.21-2.2.48-.93.73-2.02.73-3.25s-.24-2.31-.73-3.24c-.48-.93-1.23-1.65-2.23-2.17-1-.52-2.27-.77-3.81-.77h-5.39v30.46h-7.5Z"/>
        <path class="cls-1" d="M221.07,54.06c-1.9,0-3.57-.41-4.99-1.24-1.43-.83-2.53-2.02-3.31-3.57-.78-1.55-1.17-3.4-1.17-5.55v-17.49h7.38v16.21c0,1.71.44,3.04,1.33,4.01.89.97,2.1,1.45,3.64,1.45,1.05,0,1.98-.23,2.78-.68s1.43-1.11,1.88-1.97.68-1.9.68-3.11v-15.92h7.41v27.51h-6.99l-.1-6.86h.42c-.72,2.31-1.82,4.09-3.31,5.34-1.49,1.25-3.37,1.87-5.65,1.87Z"/>
        <path class="cls-1" d="M250.35,17.06v36.66h-7.38V17.06h7.38Z"/>
        <path class="cls-1" d="M267.55,54.26c-2.21,0-4.17-.32-5.88-.95-1.71-.63-3.1-1.55-4.18-2.76-1.08-1.21-1.78-2.66-2.09-4.37l6.86-1.18c.36,1.28.99,2.24,1.89,2.88.9.64,2.11.96,3.62.96,1.41,0,2.52-.27,3.33-.8s1.22-1.21,1.22-2.03c0-.72-.29-1.31-.87-1.77-.58-.46-1.47-.81-2.67-1.06l-4.75-.98c-2.66-.54-4.64-1.46-5.95-2.77-1.31-1.3-1.97-2.98-1.97-5.03,0-1.77.48-3.29,1.45-4.56.97-1.27,2.31-2.25,4.04-2.94,1.72-.69,3.75-1.03,6.08-1.03,2.16,0,4.04.3,5.63.9,1.59.6,2.88,1.45,3.86,2.55.98,1.1,1.64,2.4,1.97,3.89l-6.55,1.16c-.28-.93-.82-1.7-1.61-2.3s-1.87-.9-3.21-.9c-1.21,0-2.23.25-3.05.76s-1.23,1.19-1.23,2.04c0,.69.27,1.27.8,1.75s1.45.84,2.74,1.11l4.95.98c2.66.54,4.63,1.42,5.93,2.65,1.3,1.22,1.94,2.82,1.94,4.79,0,1.8-.53,3.38-1.57,4.74-1.05,1.35-2.5,2.41-4.34,3.16-1.85.75-3.97,1.13-6.39,1.13Z"/>
        <path class="cls-1" d="M297.27,54.26c-2.81,0-5.23-.57-7.26-1.72s-3.6-2.78-4.69-4.9c-1.09-2.12-1.64-4.63-1.64-7.53s.54-5.32,1.62-7.46c1.08-2.13,2.62-3.8,4.6-4.99,1.98-1.2,4.31-1.8,6.99-1.8,1.8,0,3.49.29,5.04.86,1.56.57,2.93,1.44,4.11,2.6,1.18,1.16,2.1,2.6,2.77,4.34.66,1.74,1,3.79,1,6.15v2.07h-23.1v-4.63h19.49l-3.44,1.23c0-1.43-.22-2.67-.65-3.73-.44-1.06-1.08-1.88-1.94-2.46-.86-.58-1.92-.87-3.19-.87s-2.37.3-3.26.89c-.89.59-1.57,1.39-2.03,2.4-.46,1.01-.69,2.16-.69,3.46v3.27c0,1.59.27,2.93.8,4.01.53,1.08,1.28,1.89,2.24,2.44.96.54,2.08.81,3.36.81.87,0,1.66-.12,2.36-.37s1.31-.61,1.81-1.09.88-1.08,1.14-1.78l6.69,1.25c-.44,1.51-1.21,2.83-2.31,3.97s-2.47,2.02-4.12,2.65-3.55.93-5.7.93Z"/>
      </g>
    </g>
  </g>
</svg>